<svg xmlns="http://www.w3.org/2000/svg" xmlns:xlink="http://www.w3.org/1999/xlink"><defs><style>
    .sprite-symbol-usage {display: none;}
    .sprite-symbol-usage:target {display: inline;}
  </style><symbol viewBox="0 0 9.76 7.82" id="arr_left"><path d="M3.91 7.82 0 3.91 3.91 0l.85.85L1.7 3.91l3.06 3.06-.85.85zM8.91 7.82 5 3.91 8.91 0l.85.85L6.7 3.91l3.06 3.06-.85.85z" /></symbol><symbol viewBox="0 0 14 14" id="arr_left_2"><path d="M13.06 7.758H3.819L8.061 12 7 13.06.94 7 7 .94 8.06 2 3.819 6.242h9.243v1.516Z" /></symbol><symbol viewBox="0 0 9.76 7.82" id="arr_right"><path d="M5.85 7.82 5 6.97l3.06-3.06L5 .85 5.85 0l3.91 3.91-3.91 3.91zM.85 7.82 0 6.97l3.06-3.06L0 .85.85 0l3.91 3.91L.85 7.82z" /></symbol><symbol viewBox="0 0 14 14" id="arr_right_2"><path d="M.94 7.758h9.242L5.939 12 7 13.06 13.06 7 7 .94 5.94 2l4.242 4.242H.939v1.516Z" /></symbol></defs><use id="arr_left-usage" xlink:href="#arr_left" class="sprite-symbol-usage" /><use id="arr_left_2-usage" xlink:href="#arr_left_2" class="sprite-symbol-usage" /><use id="arr_right-usage" xlink:href="#arr_right" class="sprite-symbol-usage" /><use id="arr_right_2-usage" xlink:href="#arr_right_2" class="sprite-symbol-usage" /></svg>